<svg data-v-fde0c5aa="" xmlns="http://www.w3.org/2000/svg" viewBox="0 0 300 300" class="font"><!----><defs data-v-fde0c5aa=""><!----></defs><rect data-v-fde0c5aa="" fill="transparent" x="0" y="0" width="300px" height="300px" class="logo-background-square" style="--darkreader-inline-fill: transparent;" data-darkreader-inline-fill=""></rect><defs data-v-fde0c5aa=""><linearGradient data-v-fde0c5aa="" gradientTransform="rotate(25)" id="6a98f430-cdb4-4905-95f9-a56a92779fed" x1="0%" y1="0%" x2="100%" y2="0%"><stop data-v-fde0c5aa="" offset="0%" stop-color="#085B20" stop-opacity="1" style="--darkreader-inline-stopcolor: #06491a;" data-darkreader-inline-stopcolor=""></stop><stop data-v-fde0c5aa="" offset="100%" stop-color="#41E296" stop-opacity="1" style="--darkreader-inline-stopcolor: #189e6f;" data-darkreader-inline-stopcolor=""></stop></linearGradient></defs><g data-v-fde0c5aa="" id="96b73d10-c587-42f1-ae06-2b15cba9ab3c" fill="url(#6a98f430-cdb4-4905-95f9-a56a92779fed)" transform="matrix(2.1857922077178955,0,0,2.1857922077178955,39.23497270222197,135.3879784886704)"><path d="M0.35 2.56L0.35 0.71L8.79 0.71L8.79 3.81L6.37 3.81L6.37 2.56L4.13 2.56L4.13 4.49L6.79 4.49L6.79 6.36L4.13 6.36L4.13 8.64L6.37 8.64L6.37 7.34L8.79 7.34L8.79 10.50L0.35 10.50L0.35 8.64L1.23 8.64L1.23 2.56L0.35 2.56ZM9.35 5.32L9.35 3.50L10.11 3.50L10.11 2.21L12.68 1.39L12.68 3.50L14.01 3.50L14.01 5.32L12.68 5.32L12.68 7.81L12.68 7.81Q12.68 7.99 12.68 8.19L12.68 8.19L12.68 8.19Q12.67 8.39 12.71 8.55L12.71 8.55L12.71 8.55Q12.74 8.72 12.83 8.83L12.83 8.83L12.83 8.83Q12.92 8.93 13.13 8.93L13.13 8.93L13.13 8.93Q13.27 8.93 13.54 8.86L13.54 8.86L13.54 8.86Q13.82 8.78 14.01 8.69L14.01 8.69L14.01 10.49L14.01 10.49Q13.86 10.56 13.62 10.61L13.62 10.61L13.62 10.61Q13.38 10.65 13.13 10.68L13.13 10.68L13.13 10.68Q12.88 10.71 12.66 10.73L12.66 10.73L12.66 10.73Q12.45 10.75 12.32 10.75L12.32 10.75L12.32 10.75Q11.54 10.75 11.09 10.54L11.09 10.54L11.09 10.54Q10.65 10.33 10.44 9.95L10.44 9.95L10.44 9.95Q10.23 9.58 10.18 9.03L10.18 9.03L10.18 9.03Q10.12 8.48 10.11 7.81L10.11 7.81L10.11 5.32L9.35 5.32ZM18.49 8.67L18.49 10.50L14.57 10.50L14.57 8.67L15.16 8.67L15.16 5.32L14.57 5.32L14.57 3.50L17.82 3.50L17.82 8.67L18.49 8.67ZM14.97 1.46L14.97 1.46L14.97 1.46Q14.97 1.22 15.06 0.97L15.06 0.97L15.06 0.97Q15.16 0.71 15.35 0.50L15.35 0.50L15.35 0.50Q15.54 0.29 15.83 0.16L15.83 0.16L15.83 0.16Q16.11 0.03 16.48 0.03L16.48 0.03L16.48 0.03Q16.84 0.03 17.13 0.16L17.13 0.16L17.13 0.16Q17.42 0.29 17.61 0.50L17.61 0.50L17.61 0.50Q17.81 0.71 17.91 0.97L17.91 0.97L17.91 0.97Q18.02 1.22 18.02 1.46L18.02 1.46L18.02 1.46Q18.02 2.04 17.63 2.46L17.63 2.46L17.63 2.46Q17.23 2.87 16.48 2.87L16.48 2.87L16.48 2.87Q16.14 2.87 15.87 2.74L15.87 2.74L15.87 2.74Q15.60 2.62 15.39 2.41L15.39 2.41L15.39 2.41Q15.19 2.21 15.08 1.96L15.08 1.96L15.08 1.96Q14.97 1.71 14.97 1.46ZM23.88 6.66L23.88 6.66L23.88 6.66Q23.87 6.41 23.82 6.15L23.82 6.15L23.82 6.15Q23.77 5.89 23.67 5.68L23.67 5.68L23.67 5.68Q23.58 5.46 23.41 5.33L23.41 5.33L23.41 5.33Q23.24 5.19 23.00 5.19L23.00 5.19L23.00 5.19Q22.69 5.19 22.46 5.35L22.46 5.35L22.46 5.35Q22.23 5.50 22.08 5.75L22.08 5.75L22.08 5.75Q21.92 6.01 21.85 6.33L21.85 6.33L21.85 6.33Q21.77 6.65 21.77 6.99L21.77 6.99L21.77 6.99Q21.77 7.67 22.16 8.15L22.16 8.15L22.16 8.15Q22.54 8.62 23.21 8.64L23.21 8.64L23.21 8.64Q23.77 8.65 24.16 8.44L24.16 8.44L24.16 8.44Q24.56 8.22 24.91 7.84L24.91 7.84L26.14 9.27L26.14 9.27Q25.89 9.53 25.54 9.79L25.54 9.79L25.54 9.79Q25.19 10.05 24.75 10.25L24.75 10.25L24.75 10.25Q24.30 10.44 23.79 10.57L23.79 10.57L23.79 10.57Q23.27 10.70 22.71 10.70L22.71 10.70L22.71 10.70Q21.94 10.70 21.24 10.46L21.24 10.46L21.24 10.46Q20.54 10.23 20.01 9.77L20.01 9.77L20.01 9.77Q19.49 9.30 19.17 8.60L19.17 8.60L19.17 8.60Q18.86 7.90 18.86 6.96L18.86 6.96L18.86 6.96Q18.86 6.03 19.14 5.35L19.14 5.35L19.14 5.35Q19.43 4.68 19.91 4.23L19.91 4.23L19.91 4.23Q20.38 3.79 21.01 3.58L21.01 3.58L21.01 3.58Q21.63 3.37 22.30 3.37L22.30 3.37L22.30 3.37Q22.65 3.37 22.94 3.46L22.94 3.46L22.94 3.46Q23.23 3.54 23.44 3.67L23.44 3.67L23.44 3.67Q23.66 3.79 23.81 3.93L23.81 3.93L23.81 3.93Q23.97 4.07 24.05 4.17L24.05 4.17L24.29 3.50L25.94 3.50L25.94 6.66L23.88 6.66ZM27.37 5.71L26.78 4.09L26.78 4.09Q26.99 3.96 27.31 3.79L27.31 3.79L27.31 3.79Q27.64 3.63 28.04 3.46L28.04 3.46L28.04 3.46Q28.43 3.30 28.89 3.20L28.89 3.20L28.89 3.20Q29.34 3.09 29.83 3.09L29.83 3.09L29.83 3.09Q30.46 3.09 31.14 3.23L31.14 3.23L31.14 3.23Q31.81 3.36 32.36 3.69L32.36 3.69L32.36 3.69Q32.91 4.02 33.27 4.58L33.27 4.58L33.27 4.58Q33.63 5.14 33.63 5.98L33.63 5.98L33.63 8.71L34.47 8.71L34.47 10.50L31.47 10.50L31.14 9.87L31.14 9.87Q30.94 10.14 30.70 10.31L30.70 10.31L30.70 10.31Q30.45 10.49 30.19 10.58L30.19 10.58L30.19 10.58Q29.93 10.68 29.68 10.72L29.68 10.72L29.68 10.72Q29.43 10.77 29.25 10.77L29.25 10.77L29.25 10.77Q28.74 10.77 28.25 10.63L28.25 10.63L28.25 10.63Q27.76 10.49 27.37 10.21L27.37 10.21L27.37 10.21Q26.98 9.93 26.73 9.48L26.73 9.48L26.73 9.48Q26.49 9.04 26.49 8.43L26.49 8.43L26.49 8.43Q26.49 7.84 26.72 7.36L26.72 7.36L26.72 7.36Q26.95 6.89 27.35 6.55L27.35 6.55L27.35 6.55Q27.75 6.22 28.28 6.03L28.28 6.03L28.28 6.03Q28.81 5.85 29.40 5.85L29.40 5.85L29.40 5.85Q29.71 5.85 29.95 5.92L29.95 5.92L29.95 5.92Q30.20 5.98 30.37 6.06L30.37 6.06L30.37 6.06Q30.55 6.15 30.65 6.23L30.65 6.23L30.65 6.23Q30.76 6.31 30.79 6.34L30.79 6.34L30.79 5.85L30.79 5.85Q30.79 5.38 30.41 5.22L30.41 5.22L30.41 5.22Q30.03 5.07 29.46 5.07L29.46 5.07L29.46 5.07Q28.83 5.07 28.30 5.28L28.30 5.28L28.30 5.28Q27.78 5.49 27.37 5.71L27.37 5.71ZM29.89 8.95L29.89 8.95L29.89 8.95Q30.21 8.95 30.45 8.79L30.45 8.79L30.45 8.79Q30.69 8.64 30.79 8.48L30.79 8.48L30.79 7.95L30.79 7.95Q30.77 7.92 30.72 7.86L30.72 7.86L30.72 7.86Q30.67 7.80 30.58 7.73L30.58 7.73L30.58 7.73Q30.48 7.66 30.33 7.60L30.33 7.60L30.33 7.60Q30.18 7.55 29.96 7.55L29.96 7.55L29.96 7.55Q29.54 7.55 29.34 7.76L29.34 7.76L29.34 7.76Q29.15 7.97 29.15 8.29L29.15 8.29L29.15 8.29Q29.15 8.58 29.36 8.76L29.36 8.76L29.36 8.76Q29.57 8.95 29.89 8.95ZM39.12 8.67L39.12 10.50L35.03 10.50L35.03 8.67L35.63 8.67L35.63 1.81L35.04 1.81L35.04 0L38.29 0L38.29 8.67L39.12 8.67ZM43.18 2.56L43.18 0.71L47.71 0.71L47.71 2.56L46.84 2.56L46.84 4.68L49.50 4.68L49.50 2.56L48.68 2.56L48.68 0.71L53.23 0.71L53.23 2.56L52.42 2.56L52.42 8.65L53.23 8.65L53.23 10.50L48.68 10.50L48.68 8.65L49.50 8.65L49.50 6.54L46.84 6.54L46.84 8.65L47.71 8.65L47.71 10.50L43.18 10.50L43.18 8.65L43.95 8.65L43.95 2.56L43.18 2.56ZM54.67 5.71L54.08 4.09L54.08 4.09Q54.29 3.96 54.61 3.79L54.61 3.79L54.61 3.79Q54.94 3.63 55.34 3.46L55.34 3.46L55.34 3.46Q55.73 3.30 56.19 3.20L56.19 3.20L56.19 3.20Q56.64 3.09 57.13 3.09L57.13 3.09L57.13 3.09Q57.76 3.09 58.44 3.23L58.44 3.23L58.44 3.23Q59.11 3.36 59.66 3.69L59.66 3.69L59.66 3.69Q60.21 4.02 60.57 4.58L60.57 4.58L60.57 4.58Q60.93 5.14 60.93 5.98L60.93 5.98L60.93 8.71L61.77 8.71L61.77 10.50L58.77 10.50L58.44 9.87L58.44 9.87Q58.24 10.14 58.00 10.31L58.00 10.31L58.00 10.31Q57.75 10.49 57.49 10.58L57.49 10.58L57.49 10.58Q57.23 10.68 56.98 10.72L56.98 10.72L56.98 10.72Q56.73 10.77 56.55 10.77L56.55 10.77L56.55 10.77Q56.04 10.77 55.55 10.63L55.55 10.63L55.55 10.63Q55.06 10.49 54.67 10.21L54.67 10.21L54.67 10.21Q54.28 9.93 54.03 9.48L54.03 9.48L54.03 9.48Q53.79 9.04 53.79 8.43L53.79 8.43L53.79 8.43Q53.79 7.84 54.02 7.36L54.02 7.36L54.02 7.36Q54.25 6.89 54.65 6.55L54.65 6.55L54.65 6.55Q55.05 6.22 55.58 6.03L55.58 6.03L55.58 6.03Q56.11 5.85 56.70 5.85L56.70 5.85L56.70 5.85Q57.01 5.85 57.25 5.92L57.25 5.92L57.25 5.92Q57.50 5.98 57.67 6.06L57.67 6.06L57.67 6.06Q57.85 6.15 57.95 6.23L57.95 6.23L57.95 6.23Q58.06 6.31 58.09 6.34L58.09 6.34L58.09 5.85L58.09 5.85Q58.09 5.38 57.71 5.22L57.71 5.22L57.71 5.22Q57.33 5.07 56.76 5.07L56.76 5.07L56.76 5.07Q56.13 5.07 55.60 5.28L55.60 5.28L55.60 5.28Q55.08 5.49 54.67 5.71L54.67 5.71ZM57.19 8.95L57.19 8.95L57.19 8.95Q57.51 8.95 57.75 8.79L57.75 8.79L57.75 8.79Q57.99 8.64 58.09 8.48L58.09 8.48L58.09 7.95L58.09 7.95Q58.07 7.92 58.02 7.86L58.02 7.86L58.02 7.86Q57.97 7.80 57.88 7.73L57.88 7.73L57.88 7.73Q57.78 7.66 57.63 7.60L57.63 7.60L57.63 7.60Q57.48 7.55 57.26 7.55L57.26 7.55L57.26 7.55Q56.84 7.55 56.64 7.76L56.64 7.76L56.64 7.76Q56.45 7.97 56.45 8.29L56.45 8.29L56.45 8.29Q56.45 8.58 56.66 8.76L56.66 8.76L56.66 8.76Q56.87 8.95 57.19 8.95ZM67.02 6.66L67.02 6.66L67.02 6.66Q67.00 6.41 66.96 6.15L66.96 6.15L66.96 6.15Q66.91 5.89 66.81 5.68L66.81 5.68L66.81 5.68Q66.71 5.46 66.54 5.33L66.54 5.33L66.54 5.33Q66.37 5.19 66.14 5.19L66.14 5.19L66.14 5.19Q65.83 5.19 65.60 5.35L65.60 5.35L65.60 5.35Q65.37 5.50 65.21 5.75L65.21 5.75L65.21 5.75Q65.06 6.01 64.98 6.33L64.98 6.33L64.98 6.33Q64.90 6.65 64.90 6.99L64.90 6.99L64.90 6.99Q64.90 7.67 65.29 8.15L65.29 8.15L65.29 8.15Q65.67 8.62 66.35 8.64L66.35 8.64L66.35 8.64Q66.91 8.65 67.30 8.44L67.30 8.44L67.30 8.44Q67.69 8.22 68.04 7.84L68.04 7.84L69.27 9.27L69.27 9.27Q69.02 9.53 68.67 9.79L68.67 9.79L68.67 9.79Q68.32 10.05 67.88 10.25L67.88 10.25L67.88 10.25Q67.44 10.44 66.92 10.57L66.92 10.57L66.92 10.57Q66.40 10.70 65.84 10.70L65.84 10.70L65.84 10.70Q65.07 10.70 64.37 10.46L64.37 10.46L64.37 10.46Q63.67 10.23 63.15 9.77L63.15 9.77L63.15 9.77Q62.62 9.30 62.31 8.60L62.31 8.60L62.31 8.60Q61.99 7.90 61.99 6.96L61.99 6.96L61.99 6.96Q61.99 6.03 62.28 5.35L62.28 5.35L62.28 5.35Q62.57 4.68 63.04 4.23L63.04 4.23L63.04 4.23Q63.52 3.79 64.14 3.58L64.14 3.58L64.14 3.58Q64.76 3.37 65.44 3.37L65.44 3.37L65.44 3.37Q65.79 3.37 66.07 3.46L66.07 3.46L66.07 3.46Q66.36 3.54 66.58 3.67L66.58 3.67L66.58 3.67Q66.79 3.79 66.95 3.93L66.95 3.93L66.95 3.93Q67.10 4.07 67.19 4.17L67.19 4.17L67.42 3.50L69.08 3.50L69.08 6.66L67.02 6.66ZM73.68 10.50L69.94 10.50L69.94 8.68L70.52 8.68L70.52 1.83L69.94 1.83L69.94 0L73.18 0L73.18 6.33L74.80 5.36L73.79 5.36L73.79 3.51L77.71 3.51L77.71 5.36L76.64 5.36L75.68 5.96L77.57 8.67L78.27 8.67L78.27 10.50L74.13 10.50L74.13 8.67L74.72 8.67L73.65 7.15L73.16 7.49L73.16 8.67L73.68 8.67L73.68 10.50ZM82.84 8.67L82.84 10.50L78.92 10.50L78.92 8.67L79.51 8.67L79.51 5.32L78.92 5.32L78.92 3.50L82.17 3.50L82.17 8.67L82.84 8.67ZM79.31 1.46L79.31 1.46L79.31 1.46Q79.31 1.22 79.41 0.97L79.41 0.97L79.41 0.97Q79.51 0.71 79.70 0.50L79.70 0.50L79.70 0.50Q79.88 0.29 80.17 0.16L80.17 0.16L80.17 0.16Q80.46 0.03 80.82 0.03L80.82 0.03L80.82 0.03Q81.19 0.03 81.47 0.16L81.47 0.16L81.47 0.16Q81.76 0.29 81.96 0.50L81.96 0.50L81.96 0.50Q82.15 0.71 82.26 0.97L82.26 0.97L82.26 0.97Q82.36 1.22 82.36 1.46L82.36 1.46L82.36 1.46Q82.36 2.04 81.97 2.46L81.97 2.46L81.97 2.46Q81.58 2.87 80.82 2.87L80.82 2.87L80.82 2.87Q80.49 2.87 80.21 2.74L80.21 2.74L80.21 2.74Q79.94 2.62 79.74 2.41L79.74 2.41L79.74 2.41Q79.53 2.21 79.42 1.96L79.42 1.96L79.42 1.96Q79.31 1.71 79.31 1.46ZM87.85 8.67L87.85 10.50L83.54 10.50L83.54 8.67L84.13 8.67L84.13 5.32L83.54 5.32L83.54 3.50L86.52 3.50L86.84 4.37L86.84 4.37Q87.21 3.88 87.69 3.56L87.69 3.56L87.69 3.56Q88.17 3.25 88.84 3.25L88.84 3.25L88.84 3.25Q89.66 3.25 90.15 3.52L90.15 3.52L90.15 3.52Q90.65 3.79 90.92 4.23L90.92 4.23L90.92 4.23Q91.20 4.68 91.29 5.23L91.29 5.23L91.29 5.23Q91.38 5.78 91.38 6.33L91.38 6.33L91.38 8.67L92.04 8.67L92.04 10.50L88.51 10.50L88.51 6.68L88.51 6.68Q88.51 6.50 88.50 6.27L88.50 6.27L88.50 6.27Q88.49 6.05 88.42 5.85L88.42 5.85L88.42 5.85Q88.35 5.66 88.19 5.52L88.19 5.52L88.19 5.52Q88.03 5.38 87.72 5.38L87.72 5.38L87.72 5.38Q87.46 5.38 87.28 5.50L87.28 5.50L87.28 5.50Q87.11 5.61 87.01 5.80L87.01 5.80L87.01 5.80Q86.91 5.99 86.88 6.22L86.88 6.22L86.88 6.22Q86.84 6.45 86.84 6.68L86.84 6.68L86.84 8.67L87.85 8.67ZM92.58 12.14L93.32 10.58L93.32 10.58Q93.45 10.70 93.70 10.84L93.70 10.84L93.70 10.84Q93.94 10.99 94.26 11.14L94.26 11.14L94.26 11.14Q94.58 11.28 94.97 11.38L94.97 11.38L94.97 11.38Q95.35 11.48 95.76 11.48L95.76 11.48L95.76 11.48Q96.24 11.48 96.54 11.35L96.54 11.35L96.54 11.35Q96.85 11.23 97.04 11.04L97.04 11.04L97.04 11.04Q97.23 10.85 97.31 10.62L97.31 10.62L97.31 10.62Q97.38 10.39 97.38 10.16L97.38 10.16L97.38 9.69L97.38 9.69Q97.31 9.79 97.17 9.92L97.17 9.92L97.17 9.92Q97.03 10.05 96.83 10.17L96.83 10.17L96.83 10.17Q96.63 10.29 96.36 10.37L96.36 10.37L96.36 10.37Q96.08 10.46 95.75 10.46L95.75 10.46L95.75 10.46Q94.84 10.46 94.20 10.16L94.20 10.16L94.20 10.16Q93.56 9.86 93.16 9.37L93.16 9.37L93.16 9.37Q92.76 8.88 92.58 8.25L92.58 8.25L92.58 8.25Q92.39 7.62 92.39 6.96L92.39 6.96L92.39 6.96Q92.39 6.15 92.61 5.48L92.61 5.48L92.61 5.48Q92.83 4.82 93.28 4.35L93.28 4.35L93.28 4.35Q93.72 3.88 94.37 3.62L94.37 3.62L94.37 3.62Q95.03 3.36 95.90 3.36L95.90 3.36L95.90 3.36Q96.36 3.36 96.77 3.54L96.77 3.54L96.77 3.54Q97.17 3.72 97.38 3.93L97.38 3.93L97.66 3.50L101.00 3.50L101.00 5.33L100.16 5.33L100.16 9.52L100.16 9.52Q100.16 10.39 99.89 11.10L99.89 11.10L99.89 11.10Q99.62 11.80 99.08 12.31L99.08 12.31L99.08 12.31Q98.53 12.81 97.71 13.09L97.71 13.09L97.71 13.09Q96.89 13.37 95.79 13.37L95.79 13.37L95.79 13.37Q95.21 13.37 94.72 13.24L94.72 13.24L94.72 13.24Q94.22 13.12 93.81 12.94L93.81 12.94L93.81 12.94Q93.39 12.75 93.09 12.54L93.09 12.54L93.09 12.54Q92.78 12.32 92.58 12.14L92.58 12.14ZM95.37 6.93L95.37 6.93L95.37 6.93Q95.37 7.25 95.44 7.56L95.44 7.56L95.44 7.56Q95.51 7.87 95.64 8.11L95.64 8.11L95.64 8.11Q95.77 8.34 95.96 8.50L95.96 8.50L95.96 8.50Q96.14 8.65 96.38 8.65L96.38 8.65L96.38 8.65Q96.59 8.65 96.78 8.53L96.78 8.53L96.78 8.53Q96.96 8.40 97.10 8.17L97.10 8.17L97.10 8.17Q97.24 7.94 97.31 7.61L97.31 7.61L97.31 7.61Q97.38 7.28 97.37 6.86L97.37 6.86L97.37 6.86Q97.37 6.51 97.29 6.20L97.29 6.20L97.29 6.20Q97.20 5.89 97.06 5.66L97.06 5.66L97.06 5.66Q96.92 5.43 96.74 5.31L96.74 5.31L96.74 5.31Q96.56 5.18 96.36 5.18L96.36 5.18L96.36 5.18Q95.91 5.18 95.64 5.66L95.64 5.66L95.64 5.66Q95.37 6.13 95.37 6.93Z"></path></g><!----><!----></svg>